<?xml version="1.0" encoding="UTF-8" standalone="no"?>
<!-- Created with Inkscape (http://www.inkscape.org/) -->

<svg
   xmlns:dc="http://purl.org/dc/elements/1.1/"
   xmlns:cc="http://creativecommons.org/ns#"
   xmlns:rdf="http://www.w3.org/1999/02/22-rdf-syntax-ns#"
   xmlns:svg="http://www.w3.org/2000/svg"
   xmlns="http://www.w3.org/2000/svg"
   xmlns:sodipodi="http://sodipodi.sourceforge.net/DTD/sodipodi-0.dtd"
   xmlns:inkscape="http://www.inkscape.org/namespaces/inkscape"
   width="470px"
   height="130px"
   viewBox="0 0 470 130"
   version="1.1"
   id="SVGRoot"
   inkscape:version="0.92.1 r15371"
   sodipodi:docname="Piankusol_2.svg">
  <sodipodi:namedview
     id="base"
     pagecolor="#ffffff"
     bordercolor="#666666"
     borderopacity="1.0"
     inkscape:pageopacity="0.0"
     inkscape:pageshadow="2"
     inkscape:zoom="1.0893617"
     inkscape:cx="235"
     inkscape:cy="65"
     inkscape:document-units="px"
     inkscape:current-layer="layer1"
     showgrid="false"
     inkscape:window-width="1366"
     inkscape:window-height="655"
     inkscape:window-x="0"
     inkscape:window-y="27"
     inkscape:window-maximized="1" />
  <defs
     id="defs1767" />
  <metadata
     id="metadata1770">
    <rdf:RDF>
      <cc:Work
         rdf:about="">
        <dc:format>image/svg+xml</dc:format>
        <dc:type
           rdf:resource="http://purl.org/dc/dcmitype/StillImage" />
        <dc:title></dc:title>
      </cc:Work>
    </rdf:RDF>
  </metadata>
  <g
     id="layer1"
     inkscape:groupmode="layer"
     inkscape:label="Layer 1">
    <g
       id="g320"
       transform="matrix(1.3333333,0,0,-1.3333333,83.688058,108.54153)">
      <path
         d="m 0,0 c -2.552,7.34 -2.558,32.024 7.363,47.468 0,0 -7.879,-17.916 -5.947,-33.898 0,0 12.207,4.36 13.057,15.324 0.793,10.23 -4.641,22.899 1.716,31.511 0,0 -39.679,-18.285 -19.029,-46.711 0,0 -0.54,-5.237 0.168,-9.776 -3.287,1.513 -33.264,15.995 -44.693,45.863 0,0 13.861,-23.939 33.642,-35.109 0,0 6.338,18.871 -6.453,27.657 -12.791,8.786 -29.888,13.878 -34.359,28.308 0,0 -12.569,-60.396 37.014,-60.701 C -15.42,8.512 0.674,-1.937 0,0"
         style="fill:#006838;fill-opacity:1;fill-rule:nonzero;stroke:none"
         id="path322"
         inkscape:connector-curvature="0" />
    </g>
    <path
       d="m 131.68553,96.67633 h -8.644 V 39.416337 h 8.644 z"
       style="fill:#006838;fill-opacity:1;fill-rule:nonzero;stroke:#006838;stroke-width:1.33333325;stroke-linecap:butt;stroke-linejoin:miter;stroke-miterlimit:10;stroke-dasharray:none;stroke-opacity:1"
       id="path324"
       inkscape:connector-curvature="0" />
    <g
       id="g326"
       transform="matrix(1.3333333,0,0,-1.3333333,195.511,39.416473)">
      <path
         d="m 0,0 v -32.499 c -0.215,-2.055 -0.787,-3.896 -1.721,-5.522 -0.4,-0.695 -0.9,-1.37 -1.502,-2.023 -0.599,-0.653 -1.32,-1.24 -2.16,-1.761 -0.841,-0.52 -1.821,-0.94 -2.942,-1.26 -1.12,-0.321 -2.402,-0.481 -3.842,-0.481 -1.067,0 -2.062,0.141 -2.981,0.421 -0.922,0.28 -1.723,0.699 -2.403,1.261 -0.679,0.56 -1.22,1.254 -1.621,2.081 -0.398,0.827 -0.613,1.787 -0.64,2.882 -0.026,-1.095 -0.24,-2.055 -0.64,-2.882 -0.401,-0.827 -0.948,-1.521 -1.642,-2.081 -0.693,-0.562 -1.5,-0.981 -2.421,-1.261 -0.92,-0.28 -1.915,-0.421 -2.981,-0.421 -1.441,0 -2.723,0.16 -3.842,0.481 -1.121,0.32 -2.101,0.74 -2.943,1.26 -0.84,0.521 -1.554,1.108 -2.141,1.761 -0.588,0.653 -1.08,1.328 -1.48,2.023 -0.935,1.626 -1.522,3.467 -1.762,5.522 V 0 h 6.404 v -30.018 c 0,-1.895 0.227,-3.348 0.681,-4.362 0.453,-1.015 0.986,-1.755 1.6,-2.222 0.614,-0.467 1.227,-0.74 1.841,-0.82 0.615,-0.08 1.068,-0.12 1.362,-0.12 h 0.28 c 1.12,0 2.001,0.293 2.642,0.881 0.639,0.586 1.127,1.266 1.459,2.041 0.334,0.773 0.541,1.547 0.622,2.321 0.08,0.775 0.121,1.362 0.121,1.762 V -30.018 0 h 5.682 v -30.018 -0.519 c 0,-0.4 0.052,-0.987 0.16,-1.762 0.107,-0.774 0.327,-1.548 0.66,-2.321 0.334,-0.775 0.828,-1.455 1.481,-2.041 0.653,-0.588 1.541,-0.881 2.661,-0.881 h 0.32 c 0.294,0 0.735,0.04 1.323,0.12 0.586,0.08 1.174,0.353 1.76,0.82 0.586,0.467 1.101,1.207 1.541,2.222 0.441,1.014 0.661,2.467 0.661,4.362 V 0 Z"
         style="fill:#006838;fill-opacity:1;fill-rule:nonzero;stroke:none"
         id="path328"
         inkscape:connector-curvature="0" />
    </g>
    <g
       id="g330"
       transform="matrix(1.3333333,0,0,-1.3333333,195.511,39.416473)">
      <path
         d="m 0,0 v -32.499 c -0.215,-2.055 -0.787,-3.896 -1.721,-5.522 -0.4,-0.695 -0.9,-1.37 -1.502,-2.023 -0.599,-0.653 -1.32,-1.24 -2.16,-1.761 -0.841,-0.52 -1.821,-0.94 -2.942,-1.26 -1.12,-0.321 -2.402,-0.481 -3.842,-0.481 -1.067,0 -2.062,0.141 -2.981,0.421 -0.922,0.28 -1.723,0.699 -2.403,1.261 -0.679,0.56 -1.22,1.254 -1.621,2.081 -0.398,0.827 -0.613,1.787 -0.64,2.882 -0.026,-1.095 -0.24,-2.055 -0.64,-2.882 -0.401,-0.827 -0.948,-1.521 -1.642,-2.081 -0.693,-0.562 -1.5,-0.981 -2.421,-1.261 -0.92,-0.28 -1.915,-0.421 -2.981,-0.421 -1.441,0 -2.723,0.16 -3.842,0.481 -1.121,0.32 -2.101,0.74 -2.943,1.26 -0.84,0.521 -1.554,1.108 -2.141,1.761 -0.588,0.653 -1.08,1.328 -1.48,2.023 -0.935,1.626 -1.522,3.467 -1.762,5.522 V 0 h 6.404 v -30.018 c 0,-1.895 0.227,-3.348 0.681,-4.362 0.453,-1.015 0.986,-1.755 1.6,-2.222 0.614,-0.467 1.227,-0.74 1.841,-0.82 0.615,-0.08 1.068,-0.12 1.362,-0.12 h 0.28 c 1.12,0 2.001,0.293 2.642,0.881 0.639,0.586 1.127,1.266 1.459,2.041 0.334,0.773 0.541,1.547 0.622,2.321 0.08,0.775 0.121,1.362 0.121,1.762 V -30.018 0 h 5.682 v -30.018 -0.519 c 0,-0.4 0.052,-0.987 0.16,-1.762 0.107,-0.774 0.327,-1.548 0.66,-2.321 0.334,-0.775 0.828,-1.455 1.481,-2.041 0.653,-0.588 1.541,-0.881 2.661,-0.881 h 0.32 c 0.294,0 0.735,0.04 1.323,0.12 0.586,0.08 1.174,0.353 1.76,0.82 0.586,0.467 1.101,1.207 1.541,2.222 0.441,1.014 0.661,2.467 0.661,4.362 V 0 Z"
         style="fill:none;stroke:#006838;stroke-width:1;stroke-linecap:butt;stroke-linejoin:miter;stroke-miterlimit:10;stroke-dasharray:none;stroke-opacity:1"
         id="path332"
         inkscape:connector-curvature="0" />
    </g>
    <g
       id="g334"
       transform="matrix(1.3333333,0,0,-1.3333333,188.03967,19.510334)">
      <path
         d="m 0,0 v -9.847 h -23.935 v 6.004 H -6.004 V 0 Z"
         style="fill:#006838;fill-opacity:1;fill-rule:nonzero;stroke:none"
         id="path336"
         inkscape:connector-curvature="0" />
    </g>
    <g
       id="g338"
       transform="matrix(1.3333333,0,0,-1.3333333,188.03967,19.510334)">
      <path
         d="m 0,0 v -9.847 h -23.935 v 6.004 H -6.004 V 0 Z"
         style="fill:none;stroke:#006838;stroke-width:1;stroke-linecap:butt;stroke-linejoin:miter;stroke-miterlimit:10;stroke-dasharray:none;stroke-opacity:1"
         id="path340"
         inkscape:connector-curvature="0" />
    </g>
    <g
       id="g342"
       transform="matrix(1.3333333,0,0,-1.3333333,248.82353,39.416473)">
      <path
         d="m 0,0 v -30.897 c 0,-1.816 -0.268,-3.376 -0.801,-4.684 -0.534,-1.308 -1.215,-2.408 -2.041,-3.302 -0.828,-0.894 -1.748,-1.607 -2.762,-2.141 -1.015,-0.535 -1.988,-0.941 -2.921,-1.221 -0.935,-0.279 -1.776,-0.467 -2.522,-0.561 -0.748,-0.093 -1.281,-0.139 -1.601,-0.139 h -8.004 c -2.108,0 -3.91,0.22 -5.404,0.661 -1.495,0.439 -2.749,1.013 -3.762,1.721 -1.014,0.706 -1.821,1.494 -2.421,2.361 -0.601,0.866 -1.055,1.727 -1.362,2.581 -0.307,0.853 -0.506,1.654 -0.6,2.402 -0.093,0.746 -0.14,1.347 -0.14,1.8 0,1.708 0.306,3.136 0.921,4.283 0.613,1.148 1.314,2.081 2.101,2.802 0.788,0.721 1.526,1.254 2.221,1.601 0.694,0.346 1.121,0.546 1.281,0.6 -0.854,0.16 -1.608,0.42 -2.261,0.78 -0.654,0.361 -1.222,0.788 -1.701,1.282 -0.481,0.493 -0.887,1.02 -1.221,1.58 -0.334,0.56 -0.62,1.121 -0.861,1.681 -0.534,1.307 -0.854,2.762 -0.96,4.363 0,1.547 0.146,2.916 0.44,4.102 0.293,1.188 0.687,2.222 1.181,3.103 0.493,0.88 1.054,1.62 1.68,2.221 0.627,0.6 1.274,1.1 1.942,1.5 1.547,0.908 3.308,1.415 5.283,1.521 h 8.565 v -6.003 h -5.123 c -0.96,0 -1.801,-0.094 -2.522,-0.28 -0.721,-0.187 -1.34,-0.434 -1.861,-0.74 -0.52,-0.308 -0.959,-0.655 -1.321,-1.041 -0.359,-0.387 -0.66,-0.781 -0.9,-1.181 -0.533,-0.934 -0.84,-2.001 -0.92,-3.202 0,-1.068 0.172,-1.968 0.52,-2.701 0.346,-0.735 0.787,-1.341 1.32,-1.822 0.534,-0.48 1.115,-0.854 1.742,-1.121 0.627,-0.266 1.22,-0.459 1.781,-0.58 0.56,-0.12 1.039,-0.193 1.44,-0.22 0.4,-0.027 0.641,-0.04 0.721,-0.04 h 5.123 v -6.004 h -5.123 c -1.122,0 -2.075,-0.127 -2.862,-0.379 -0.787,-0.254 -1.435,-0.568 -1.941,-0.941 -0.507,-0.374 -0.901,-0.788 -1.181,-1.241 -0.28,-0.454 -0.486,-0.895 -0.62,-1.32 -0.134,-0.428 -0.213,-0.795 -0.24,-1.101 -0.027,-0.308 -0.041,-0.515 -0.041,-0.62 0,-1.068 0.147,-1.969 0.441,-2.702 0.293,-0.735 0.666,-1.335 1.121,-1.802 0.453,-0.467 0.961,-0.834 1.52,-1.1 0.56,-0.267 1.095,-0.461 1.601,-0.581 0.507,-0.12 0.967,-0.186 1.381,-0.2 0.414,-0.014 0.701,-0.019 0.862,-0.019 h 0.16 7.724 c 1.521,0 2.707,0.306 3.563,0.92 0.853,0.614 1.507,1.307 1.96,2.082 0.507,0.879 0.841,1.893 1.001,3.042 V 0 Z"
         style="fill:#006838;fill-opacity:1;fill-rule:nonzero;stroke:none"
         id="path344"
         inkscape:connector-curvature="0" />
    </g>
    <g
       id="g346"
       transform="matrix(1.3333333,0,0,-1.3333333,248.82353,39.416473)">
      <path
         d="m 0,0 v -30.897 c 0,-1.816 -0.268,-3.376 -0.801,-4.684 -0.534,-1.308 -1.215,-2.408 -2.041,-3.302 -0.828,-0.894 -1.748,-1.607 -2.762,-2.141 -1.015,-0.535 -1.988,-0.941 -2.921,-1.221 -0.935,-0.279 -1.776,-0.467 -2.522,-0.561 -0.748,-0.093 -1.281,-0.139 -1.601,-0.139 h -8.004 c -2.108,0 -3.91,0.22 -5.404,0.661 -1.495,0.439 -2.749,1.013 -3.762,1.721 -1.014,0.706 -1.821,1.494 -2.421,2.361 -0.601,0.866 -1.055,1.727 -1.362,2.581 -0.307,0.853 -0.506,1.654 -0.6,2.402 -0.093,0.746 -0.14,1.347 -0.14,1.8 0,1.708 0.306,3.136 0.921,4.283 0.613,1.148 1.314,2.081 2.101,2.802 0.788,0.721 1.526,1.254 2.221,1.601 0.694,0.346 1.121,0.546 1.281,0.6 -0.854,0.16 -1.608,0.42 -2.261,0.78 -0.654,0.361 -1.222,0.788 -1.701,1.282 -0.481,0.493 -0.887,1.02 -1.221,1.58 -0.334,0.56 -0.62,1.121 -0.861,1.681 -0.534,1.307 -0.854,2.762 -0.96,4.363 0,1.547 0.146,2.916 0.44,4.102 0.293,1.188 0.687,2.222 1.181,3.103 0.493,0.88 1.054,1.62 1.68,2.221 0.627,0.6 1.274,1.1 1.942,1.5 1.547,0.908 3.308,1.415 5.283,1.521 h 8.565 v -6.003 h -5.123 c -0.96,0 -1.801,-0.094 -2.522,-0.28 -0.721,-0.187 -1.34,-0.434 -1.861,-0.74 -0.52,-0.308 -0.959,-0.655 -1.321,-1.041 -0.359,-0.387 -0.66,-0.781 -0.9,-1.181 -0.533,-0.934 -0.84,-2.001 -0.92,-3.202 0,-1.068 0.172,-1.968 0.52,-2.701 0.346,-0.735 0.787,-1.341 1.32,-1.822 0.534,-0.48 1.115,-0.854 1.742,-1.121 0.627,-0.266 1.22,-0.459 1.781,-0.58 0.56,-0.12 1.039,-0.193 1.44,-0.22 0.4,-0.027 0.641,-0.04 0.721,-0.04 h 5.123 v -6.004 h -5.123 c -1.122,0 -2.075,-0.127 -2.862,-0.379 -0.787,-0.254 -1.435,-0.568 -1.941,-0.941 -0.507,-0.374 -0.901,-0.788 -1.181,-1.241 -0.28,-0.454 -0.486,-0.895 -0.62,-1.32 -0.134,-0.428 -0.213,-0.795 -0.24,-1.101 -0.027,-0.308 -0.041,-0.515 -0.041,-0.62 0,-1.068 0.147,-1.969 0.441,-2.702 0.293,-0.735 0.666,-1.335 1.121,-1.802 0.453,-0.467 0.961,-0.834 1.52,-1.1 0.56,-0.267 1.095,-0.461 1.601,-0.581 0.507,-0.12 0.967,-0.186 1.381,-0.2 0.414,-0.014 0.701,-0.019 0.862,-0.019 h 0.16 7.724 c 1.521,0 2.707,0.306 3.563,0.92 0.853,0.614 1.507,1.307 1.96,2.082 0.507,0.879 0.841,1.893 1.001,3.042 V 0 Z"
         style="fill:none;stroke:#006838;stroke-width:1;stroke-linecap:butt;stroke-linejoin:miter;stroke-miterlimit:10;stroke-dasharray:none;stroke-opacity:1"
         id="path348"
         inkscape:connector-curvature="0" />
    </g>
    <g
       id="g350"
       transform="matrix(1.3333333,0,0,-1.3333333,292.74273,54.144333)">
      <path
         d="m 0,0 -2.722,1.761 c -0.667,0.427 -1.415,0.834 -2.241,1.22 -0.828,0.387 -1.661,0.727 -2.502,1.021 -0.84,0.293 -1.635,0.52 -2.382,0.681 -0.747,0.16 -1.36,0.24 -1.841,0.24 -1.013,0 -1.974,-0.088 -2.88,-0.26 -0.908,-0.174 -1.708,-0.494 -2.403,-0.961 -0.694,-0.467 -1.248,-1.107 -1.66,-1.921 -0.415,-0.814 -0.621,-1.875 -0.621,-3.182 0,-1.308 0.354,-2.328 1.061,-3.062 0.707,-0.734 1.627,-1.308 2.762,-1.721 1.134,-0.415 2.408,-0.727 3.822,-0.94 1.414,-0.215 2.828,-0.44 4.242,-0.681 1.414,-0.24 2.775,-0.715 4.083,-1.421 1.307,-0.707 2.462,-1.581 3.462,-2.622 1.001,-1.04 1.8,-2.227 2.402,-3.561 0.6,-1.335 0.9,-2.748 0.9,-4.242 0,-2.215 -0.4,-4.137 -1.201,-5.764 -0.801,-1.628 -1.888,-2.969 -3.261,-4.023 -1.375,-1.054 -2.989,-1.835 -4.843,-2.341 -1.856,-0.506 -3.823,-0.761 -5.905,-0.761 -2.934,0 -5.436,0.327 -7.504,0.98 -2.068,0.655 -3.782,1.381 -5.143,2.182 -1.574,0.907 -2.881,1.962 -3.922,3.162 l 4.242,4.162 c 0.508,-0.507 1.188,-1.027 2.041,-1.56 0.854,-0.534 1.823,-1.015 2.903,-1.441 1.08,-0.426 2.24,-0.774 3.482,-1.041 1.24,-0.267 2.514,-0.4 3.821,-0.4 1.334,0 2.542,0.167 3.622,0.501 1.082,0.333 2.001,0.807 2.763,1.42 0.76,0.614 1.34,1.334 1.74,2.162 0.401,0.826 0.601,1.746 0.601,2.762 0,1.04 -0.174,1.886 -0.521,2.541 -0.346,0.653 -0.753,1.167 -1.22,1.541 -0.467,0.373 -0.941,0.633 -1.421,0.78 -0.481,0.146 -0.854,0.247 -1.121,0.301 -0.106,0.025 -0.539,0.098 -1.3,0.219 -0.761,0.121 -1.621,0.26 -2.582,0.42 -0.96,0.161 -1.921,0.321 -2.882,0.481 -0.961,0.16 -1.681,0.293 -2.162,0.4 -0.319,0.053 -0.773,0.166 -1.359,0.34 -0.588,0.174 -1.235,0.427 -1.942,0.761 -0.708,0.333 -1.428,0.773 -2.162,1.32 -0.733,0.547 -1.399,1.241 -2,2.082 -0.6,0.84 -1.088,1.841 -1.461,3.001 -0.375,1.161 -0.56,2.516 -0.56,4.063 0,2.321 0.413,4.289 1.24,5.903 0.826,1.615 1.908,2.929 3.242,3.943 1.334,1.013 2.842,1.746 4.522,2.201 1.681,0.454 3.376,0.68 5.083,0.68 1.762,0 3.37,-0.2 4.823,-0.6 1.455,-0.4 2.715,-0.828 3.783,-1.281 1.254,-0.534 2.375,-1.147 3.361,-1.841 L 3.563,5.363 Z"
         style="fill:#006838;fill-opacity:1;fill-rule:nonzero;stroke:none"
         id="path352"
         inkscape:connector-curvature="0" />
    </g>
    <g
       id="g354"
       transform="matrix(1.3333333,0,0,-1.3333333,292.74273,54.144333)">
      <path
         d="m 0,0 -2.722,1.761 c -0.667,0.427 -1.415,0.834 -2.241,1.22 -0.828,0.387 -1.661,0.727 -2.502,1.021 -0.84,0.293 -1.635,0.52 -2.382,0.681 -0.747,0.16 -1.36,0.24 -1.841,0.24 -1.013,0 -1.974,-0.088 -2.88,-0.26 -0.908,-0.174 -1.708,-0.494 -2.403,-0.961 -0.694,-0.467 -1.248,-1.107 -1.66,-1.921 -0.415,-0.814 -0.621,-1.875 -0.621,-3.182 0,-1.308 0.354,-2.328 1.061,-3.062 0.707,-0.734 1.627,-1.308 2.762,-1.721 1.134,-0.415 2.408,-0.727 3.822,-0.94 1.414,-0.215 2.828,-0.44 4.242,-0.681 1.414,-0.24 2.775,-0.715 4.083,-1.421 1.307,-0.707 2.462,-1.581 3.462,-2.622 1.001,-1.04 1.8,-2.227 2.402,-3.561 0.6,-1.335 0.9,-2.748 0.9,-4.242 0,-2.215 -0.4,-4.137 -1.201,-5.764 -0.801,-1.628 -1.888,-2.969 -3.261,-4.023 -1.375,-1.054 -2.989,-1.835 -4.843,-2.341 -1.856,-0.506 -3.823,-0.761 -5.905,-0.761 -2.934,0 -5.436,0.327 -7.504,0.98 -2.068,0.655 -3.782,1.381 -5.143,2.182 -1.574,0.907 -2.881,1.962 -3.922,3.162 l 4.242,4.162 c 0.508,-0.507 1.188,-1.027 2.041,-1.56 0.854,-0.534 1.823,-1.015 2.903,-1.441 1.08,-0.426 2.24,-0.774 3.482,-1.041 1.24,-0.267 2.514,-0.4 3.821,-0.4 1.334,0 2.542,0.167 3.622,0.501 1.082,0.333 2.001,0.807 2.763,1.42 0.76,0.614 1.34,1.334 1.74,2.162 0.401,0.826 0.601,1.746 0.601,2.762 0,1.04 -0.174,1.886 -0.521,2.541 -0.346,0.653 -0.753,1.167 -1.22,1.541 -0.467,0.373 -0.941,0.633 -1.421,0.78 -0.481,0.146 -0.854,0.247 -1.121,0.301 -0.106,0.025 -0.539,0.098 -1.3,0.219 -0.761,0.121 -1.621,0.26 -2.582,0.42 -0.96,0.161 -1.921,0.321 -2.882,0.481 -0.961,0.16 -1.681,0.293 -2.162,0.4 -0.319,0.053 -0.773,0.166 -1.359,0.34 -0.588,0.174 -1.235,0.427 -1.942,0.761 -0.708,0.333 -1.428,0.773 -2.162,1.32 -0.733,0.547 -1.399,1.241 -2,2.082 -0.6,0.84 -1.088,1.841 -1.461,3.001 -0.375,1.161 -0.56,2.516 -0.56,4.063 0,2.321 0.413,4.289 1.24,5.903 0.826,1.615 1.908,2.929 3.242,3.943 1.334,1.013 2.842,1.746 4.522,2.201 1.681,0.454 3.376,0.68 5.083,0.68 1.762,0 3.37,-0.2 4.823,-0.6 1.455,-0.4 2.715,-0.828 3.783,-1.281 1.254,-0.534 2.375,-1.147 3.361,-1.841 L 3.563,5.363 Z"
         style="fill:none;stroke:#006838;stroke-width:1;stroke-linecap:butt;stroke-linejoin:miter;stroke-miterlimit:10;stroke-dasharray:none;stroke-opacity:1"
         id="path356"
         inkscape:connector-curvature="0" />
    </g>
    <g
       id="g358"
       transform="matrix(1.3333333,0,0,-1.3333333,305.817,96.677)">
      <path
         d="m 0,0 v 32.9 c 0.88,1.627 1.841,3.015 2.882,4.163 1.04,1.146 2.114,2.1 3.221,2.861 1.107,0.761 2.202,1.361 3.283,1.802 1.08,0.44 2.081,0.773 3.002,1 0.92,0.226 1.726,0.366 2.42,0.42 0.695,0.053 1.214,0.08 1.562,0.08 h 0.4 c 2.081,-0.053 3.909,-0.32 5.483,-0.8 1.574,-0.481 2.955,-1.088 4.143,-1.822 1.187,-0.734 2.187,-1.568 3.001,-2.5 0.814,-0.935 1.487,-1.896 2.022,-2.882 0.533,-0.989 0.946,-1.961 1.24,-2.922 0.294,-0.961 0.514,-1.835 0.66,-2.622 0.147,-0.787 0.235,-1.455 0.261,-2.001 0.026,-0.548 0.04,-0.902 0.04,-1.061 V 0 h -6.404 v 26.616 c 0,1.707 -0.234,3.142 -0.7,4.303 -0.467,1.16 -1.061,2.121 -1.782,2.882 -0.719,0.76 -1.514,1.341 -2.381,1.74 -0.868,0.4 -1.688,0.7 -2.461,0.9 -0.774,0.201 -1.448,0.314 -2.022,0.341 -0.574,0.027 -0.939,0.04 -1.1,0.04 -1.308,0 -2.455,-0.146 -3.443,-0.44 -0.986,-0.294 -1.848,-0.681 -2.58,-1.16 C 10.013,34.741 9.398,34.194 8.905,33.58 8.411,32.967 8.005,32.34 7.685,31.699 6.937,30.204 6.51,28.51 6.403,26.616 V 0 Z"
         style="fill:#006838;fill-opacity:1;fill-rule:nonzero;stroke:none"
         id="path360"
         inkscape:connector-curvature="0" />
    </g>
    <g
       id="g362"
       transform="matrix(1.3333333,0,0,-1.3333333,305.817,96.677)">
      <path
         d="m 0,0 v 32.9 c 0.88,1.627 1.841,3.015 2.882,4.163 1.04,1.146 2.114,2.1 3.221,2.861 1.107,0.761 2.202,1.361 3.283,1.802 1.08,0.44 2.081,0.773 3.002,1 0.92,0.226 1.726,0.366 2.42,0.42 0.695,0.053 1.214,0.08 1.562,0.08 h 0.4 c 2.081,-0.053 3.909,-0.32 5.483,-0.8 1.574,-0.481 2.955,-1.088 4.143,-1.822 1.187,-0.734 2.187,-1.568 3.001,-2.5 0.814,-0.935 1.487,-1.896 2.022,-2.882 0.533,-0.989 0.946,-1.961 1.24,-2.922 0.294,-0.961 0.514,-1.835 0.66,-2.622 0.147,-0.787 0.235,-1.455 0.261,-2.001 0.026,-0.548 0.04,-0.902 0.04,-1.061 V 0 h -6.404 v 26.616 c 0,1.707 -0.234,3.142 -0.7,4.303 -0.467,1.16 -1.061,2.121 -1.782,2.882 -0.719,0.76 -1.514,1.341 -2.381,1.74 -0.868,0.4 -1.688,0.7 -2.461,0.9 -0.774,0.201 -1.448,0.314 -2.022,0.341 -0.574,0.027 -0.939,0.04 -1.1,0.04 -1.308,0 -2.455,-0.146 -3.443,-0.44 -0.986,-0.294 -1.848,-0.681 -2.58,-1.16 C 10.013,34.741 9.398,34.194 8.905,33.58 8.411,32.967 8.005,32.34 7.685,31.699 6.937,30.204 6.51,28.51 6.403,26.616 V 0 Z"
         style="fill:none;stroke:#006838;stroke-width:1;stroke-linecap:butt;stroke-linejoin:miter;stroke-miterlimit:10;stroke-dasharray:none;stroke-opacity:1"
         id="path364"
         inkscape:connector-curvature="0" />
    </g>
    <g
       id="g366"
       transform="matrix(1.3333333,0,0,-1.3333333,340.34433,110.23167)">
      <path
         d="m 0,0 h -3.042 v 6.004 h 5.924 c 0.854,0 1.588,-0.307 2.2,-0.921 C 5.697,4.496 6.004,3.776 6.004,2.922 V -9.686 H 0 Z"
         style="fill:#006838;fill-opacity:1;fill-rule:nonzero;stroke:none"
         id="path368"
         inkscape:connector-curvature="0" />
    </g>
    <g
       id="g370"
       transform="matrix(1.3333333,0,0,-1.3333333,340.34433,110.23167)">
      <path
         d="m 0,0 h -3.042 v 6.004 h 5.924 c 0.854,0 1.588,-0.307 2.2,-0.921 C 5.697,4.496 6.004,3.776 6.004,2.922 V -9.686 H 0 Z"
         style="fill:none;stroke:#006838;stroke-width:1;stroke-linecap:butt;stroke-linejoin:miter;stroke-miterlimit:10;stroke-dasharray:none;stroke-opacity:1"
         id="path372"
         inkscape:connector-curvature="0" />
    </g>
    <g
       id="g374"
       transform="matrix(1.3333333,0,0,-1.3333333,409.07872,38.615803)">
      <path
         d="m 0,0 c 0,-0.214 -0.24,-0.601 -0.721,-1.161 -0.479,-0.56 -1.047,-1.153 -1.701,-1.78 -0.653,-0.627 -1.314,-1.207 -1.98,-1.742 -0.668,-0.534 -1.188,-0.867 -1.561,-1 0.88,-1.068 1.573,-2.188 2.08,-3.363 0.508,-1.174 0.881,-2.28 1.121,-3.321 0.241,-1.04 0.393,-1.975 0.461,-2.802 0.067,-0.827 0.1,-1.428 0.1,-1.802 v -0.399 -26.176 h -6.404 v 26.176 c 0,1.334 -0.147,2.508 -0.44,3.521 -0.295,1.015 -0.687,1.895 -1.182,2.643 -0.494,0.746 -1.052,1.38 -1.679,1.901 -0.628,0.52 -1.261,0.941 -1.903,1.26 -1.52,0.774 -3.255,1.214 -5.202,1.321 -1.255,0 -2.355,-0.154 -3.301,-0.46 -0.949,-0.307 -1.782,-0.714 -2.502,-1.22 -0.721,-0.508 -1.334,-1.075 -1.842,-1.701 -0.507,-0.627 -0.934,-1.275 -1.28,-1.942 -0.8,-1.575 -1.294,-3.349 -1.481,-5.323 v -4.322 c 1.227,0.693 2.528,1.226 3.902,1.6 1.374,0.373 2.822,0.561 4.343,0.561 1.36,0 2.654,-0.148 3.882,-0.441 v -6.644 c -0.534,0.266 -1.128,0.421 -1.78,0.461 -0.655,0.04 -1.356,0.06 -2.102,0.06 -1.975,0 -3.696,-0.481 -5.164,-1.441 -0.746,-0.481 -1.367,-1.074 -1.86,-1.781 -0.494,-0.707 -0.902,-1.501 -1.221,-2.381 v -11.848 h -6.404 v 26.616 c 0,2.642 0.346,4.889 1.04,6.744 0.694,1.854 1.581,3.395 2.662,4.623 1.08,1.227 2.267,2.195 3.562,2.902 1.293,0.706 2.548,1.233 3.762,1.581 1.215,0.347 2.309,0.559 3.282,0.641 0.974,0.079 1.674,0.119 2.102,0.119 h 0.4 c 1.2,0 2.301,-0.067 3.302,-0.201 1.001,-0.133 1.941,-0.333 2.822,-0.599 0.053,0 0.407,0.059 1.06,0.18 0.653,0.12 1.415,0.379 2.281,0.78 0.867,0.4 1.762,0.968 2.682,1.701 0.921,0.733 1.675,1.714 2.26,2.941 C -3.829,3.736 -3.122,3.042 -2.48,2.401 -2.215,2.135 -1.947,1.867 -1.682,1.602 -1.414,1.334 -1.168,1.087 -0.941,0.861 -0.714,0.634 -0.514,0.446 -0.34,0.301 -0.167,0.153 -0.053,0.054 0,0"
         style="fill:#006838;fill-opacity:1;fill-rule:nonzero;stroke:none"
         id="path376"
         inkscape:connector-curvature="0" />
    </g>
    <g
       id="g378"
       transform="matrix(1.3333333,0,0,-1.3333333,409.07872,38.615803)">
      <path
         d="m 0,0 c 0,-0.214 -0.24,-0.601 -0.721,-1.161 -0.479,-0.56 -1.047,-1.153 -1.701,-1.78 -0.653,-0.627 -1.314,-1.207 -1.98,-1.742 -0.668,-0.534 -1.188,-0.867 -1.561,-1 0.88,-1.068 1.573,-2.188 2.08,-3.363 0.508,-1.174 0.881,-2.28 1.121,-3.321 0.241,-1.04 0.393,-1.975 0.461,-2.802 0.067,-0.827 0.1,-1.428 0.1,-1.802 v -0.399 -26.176 h -6.404 v 26.176 c 0,1.334 -0.147,2.508 -0.44,3.521 -0.295,1.015 -0.687,1.895 -1.182,2.643 -0.494,0.746 -1.052,1.38 -1.679,1.901 -0.628,0.52 -1.261,0.941 -1.903,1.26 -1.52,0.774 -3.255,1.214 -5.202,1.321 -1.255,0 -2.355,-0.154 -3.301,-0.46 -0.949,-0.307 -1.782,-0.714 -2.502,-1.22 -0.721,-0.508 -1.334,-1.075 -1.842,-1.701 -0.507,-0.627 -0.934,-1.275 -1.28,-1.942 -0.8,-1.575 -1.294,-3.349 -1.481,-5.323 v -4.322 c 1.227,0.693 2.528,1.226 3.902,1.6 1.374,0.373 2.822,0.561 4.343,0.561 1.36,0 2.654,-0.148 3.882,-0.441 v -6.644 c -0.534,0.266 -1.128,0.421 -1.78,0.461 -0.655,0.04 -1.356,0.06 -2.102,0.06 -1.975,0 -3.696,-0.481 -5.164,-1.441 -0.746,-0.481 -1.367,-1.074 -1.86,-1.781 -0.494,-0.707 -0.902,-1.501 -1.221,-2.381 v -11.848 h -6.404 v 26.616 c 0,2.642 0.346,4.889 1.04,6.744 0.694,1.854 1.581,3.395 2.662,4.623 1.08,1.227 2.267,2.195 3.562,2.902 1.293,0.706 2.548,1.233 3.762,1.581 1.215,0.347 2.309,0.559 3.282,0.641 0.974,0.079 1.674,0.119 2.102,0.119 h 0.4 c 1.2,0 2.301,-0.067 3.302,-0.201 1.001,-0.133 1.941,-0.333 2.822,-0.599 0.053,0 0.407,0.059 1.06,0.18 0.653,0.12 1.415,0.379 2.281,0.78 0.867,0.4 1.762,0.968 2.682,1.701 0.921,0.733 1.675,1.714 2.26,2.941 C -3.829,3.736 -3.122,3.042 -2.48,2.401 -2.215,2.135 -1.947,1.867 -1.682,1.602 -1.414,1.334 -1.168,1.087 -0.941,0.861 -0.714,0.634 -0.514,0.446 -0.34,0.301 -0.167,0.153 -0.053,0.054 0,0 Z"
         style="fill:none;stroke:#006838;stroke-width:1;stroke-linecap:butt;stroke-linejoin:miter;stroke-miterlimit:10;stroke-dasharray:none;stroke-opacity:1"
         id="path380"
         inkscape:connector-curvature="0" />
    </g>
    <g
       id="g382"
       transform="matrix(1.3333333,0,0,-1.3333333,446.94072,40.455533)">
      <path
         d="m 0,0 c 1.881,-0.708 3.443,-1.608 4.684,-2.702 1.24,-1.094 2.214,-2.295 2.921,-3.603 0.707,-1.307 1.241,-2.581 1.601,-3.822 0.36,-1.24 0.58,-2.354 0.66,-3.342 0.08,-0.987 0.12,-1.694 0.12,-2.122 V -15.99 -42.166 H 3.583 v 12.648 c 0,1.227 -0.28,2.261 -0.841,3.102 -0.56,0.84 -1.261,1.533 -2.101,2.081 -0.84,0.546 -1.748,0.973 -2.722,1.28 -0.974,0.307 -1.881,0.534 -2.722,0.681 -0.84,0.146 -1.82,0.247 -2.941,0.3 -0.08,0 -0.34,-0.014 -0.781,-0.04 -0.44,-0.027 -0.987,-0.114 -1.641,-0.26 -0.653,-0.147 -1.354,-0.36 -2.101,-0.641 -0.747,-0.28 -1.462,-0.687 -2.141,-1.22 -0.68,-0.535 -1.295,-1.208 -1.842,-2.021 -0.547,-0.815 -0.927,-1.808 -1.141,-2.982 -0.079,-0.374 -0.119,-0.72 -0.119,-1.041 0,-0.908 0.227,-1.681 0.68,-2.321 0.454,-0.64 1.027,-1.174 1.722,-1.601 0.693,-0.427 1.473,-0.775 2.34,-1.041 0.868,-0.267 1.721,-0.467 2.563,-0.601 0.84,-0.134 1.607,-0.22 2.301,-0.259 0.693,-0.041 1.241,-0.06 1.641,-0.06 h 0.56 v -6.004 h -7.203 c -1.496,0 -2.903,0.32 -4.224,0.961 -1.32,0.641 -2.475,1.514 -3.462,2.621 -0.987,1.106 -1.762,2.389 -2.321,3.843 -0.561,1.454 -0.841,2.981 -0.841,4.583 0,1.573 0.354,3.175 1.061,4.803 0.707,1.626 1.887,3.201 3.543,4.722 0.986,0.906 2,1.674 3.041,2.302 1.041,0.626 2.081,1.12 3.122,1.48 1.04,0.361 2.067,0.621 3.082,0.781 1.013,0.16 2.001,0.24 2.962,0.24 1.466,0 2.847,-0.141 4.142,-0.42 1.294,-0.281 2.407,-0.58 3.342,-0.901 1.094,-0.4 2.107,-0.84 3.042,-1.321 v 2.482 c 0,1.334 -0.147,2.508 -0.44,3.521 -0.294,1.015 -0.688,1.895 -1.182,2.643 -0.493,0.746 -1.054,1.38 -1.681,1.901 -0.627,0.52 -1.26,0.941 -1.9,1.26 -1.522,0.774 -3.256,1.214 -5.203,1.321 -1.736,0 -3.202,-0.306 -4.404,-0.921 -1.2,-0.613 -2.187,-1.367 -2.961,-2.26 -0.775,-0.895 -1.368,-1.829 -1.781,-2.803 -0.414,-0.974 -0.715,-1.82 -0.9,-2.541 h -6.725 c 0.16,2.375 0.621,4.389 1.381,6.044 0.76,1.653 1.682,3.035 2.762,4.142 1.08,1.107 2.247,1.981 3.502,2.621 1.254,0.641 2.461,1.115 3.623,1.421 1.16,0.307 2.2,0.5 3.121,0.581 0.92,0.08 1.581,0.12 1.981,0.12 h 0.401 C -4.156,1.06 -1.881,0.706 0,0"
         style="fill:#006838;fill-opacity:1;fill-rule:nonzero;stroke:none"
         id="path384"
         inkscape:connector-curvature="0" />
    </g>
    <g
       id="g386"
       transform="matrix(1.3333333,0,0,-1.3333333,446.94072,40.455533)">
      <path
         d="m 0,0 c 1.881,-0.708 3.443,-1.608 4.684,-2.702 1.24,-1.094 2.214,-2.295 2.921,-3.603 0.707,-1.307 1.241,-2.581 1.601,-3.822 0.36,-1.24 0.58,-2.354 0.66,-3.342 0.08,-0.987 0.12,-1.694 0.12,-2.122 V -15.99 -42.166 H 3.583 v 12.648 c 0,1.227 -0.28,2.261 -0.841,3.102 -0.56,0.84 -1.261,1.533 -2.101,2.081 -0.84,0.546 -1.748,0.973 -2.722,1.28 -0.974,0.307 -1.881,0.534 -2.722,0.681 -0.84,0.146 -1.82,0.247 -2.941,0.3 -0.08,0 -0.34,-0.014 -0.781,-0.04 -0.44,-0.027 -0.987,-0.114 -1.641,-0.26 -0.653,-0.147 -1.354,-0.36 -2.101,-0.641 -0.747,-0.28 -1.462,-0.687 -2.141,-1.22 -0.68,-0.535 -1.295,-1.208 -1.842,-2.021 -0.547,-0.815 -0.927,-1.808 -1.141,-2.982 -0.079,-0.374 -0.119,-0.72 -0.119,-1.041 0,-0.908 0.227,-1.681 0.68,-2.321 0.454,-0.64 1.027,-1.174 1.722,-1.601 0.693,-0.427 1.473,-0.775 2.34,-1.041 0.868,-0.267 1.721,-0.467 2.563,-0.601 0.84,-0.134 1.607,-0.22 2.301,-0.259 0.693,-0.041 1.241,-0.06 1.641,-0.06 h 0.56 v -6.004 h -7.203 c -1.496,0 -2.903,0.32 -4.224,0.961 -1.32,0.641 -2.475,1.514 -3.462,2.621 -0.987,1.106 -1.762,2.389 -2.321,3.843 -0.561,1.454 -0.841,2.981 -0.841,4.583 0,1.573 0.354,3.175 1.061,4.803 0.707,1.626 1.887,3.201 3.543,4.722 0.986,0.906 2,1.674 3.041,2.302 1.041,0.626 2.081,1.12 3.122,1.48 1.04,0.361 2.067,0.621 3.082,0.781 1.013,0.16 2.001,0.24 2.962,0.24 1.466,0 2.847,-0.141 4.142,-0.42 1.294,-0.281 2.407,-0.58 3.342,-0.901 1.094,-0.4 2.107,-0.84 3.042,-1.321 v 2.482 c 0,1.334 -0.147,2.508 -0.44,3.521 -0.294,1.015 -0.688,1.895 -1.182,2.643 -0.493,0.746 -1.054,1.38 -1.681,1.901 -0.627,0.52 -1.26,0.941 -1.9,1.26 -1.522,0.774 -3.256,1.214 -5.203,1.321 -1.736,0 -3.202,-0.306 -4.404,-0.921 -1.2,-0.613 -2.187,-1.367 -2.961,-2.26 -0.775,-0.895 -1.368,-1.829 -1.781,-2.803 -0.414,-0.974 -0.715,-1.82 -0.9,-2.541 h -6.725 c 0.16,2.375 0.621,4.389 1.381,6.044 0.76,1.653 1.682,3.035 2.762,4.142 1.08,1.107 2.247,1.981 3.502,2.621 1.254,0.641 2.461,1.115 3.623,1.421 1.16,0.307 2.2,0.5 3.121,0.581 0.92,0.08 1.581,0.12 1.981,0.12 h 0.401 C -4.156,1.06 -1.881,0.706 0,0 Z"
         style="fill:none;stroke:#006838;stroke-width:1;stroke-linecap:butt;stroke-linejoin:miter;stroke-miterlimit:10;stroke-dasharray:none;stroke-opacity:1"
         id="path388"
         inkscape:connector-curvature="0" />
    </g>
  </g>
</svg>
