<?xml version="1.0" encoding="UTF-8" standalone="no"?>
<!-- Created with Inkscape (http://www.inkscape.org/) -->

<svg
   xmlns:dc="http://purl.org/dc/elements/1.1/"
   xmlns:cc="http://creativecommons.org/ns#"
   xmlns:rdf="http://www.w3.org/1999/02/22-rdf-syntax-ns#"
   xmlns:svg="http://www.w3.org/2000/svg"
   xmlns="http://www.w3.org/2000/svg"
   xmlns:sodipodi="http://sodipodi.sourceforge.net/DTD/sodipodi-0.dtd"
   xmlns:inkscape="http://www.inkscape.org/namespaces/inkscape"
   width="470px"
   height="130px"
   viewBox="0 0 470 130"
   version="1.1"
   id="SVGRoot"
   inkscape:version="0.92.1 r15371"
   sodipodi:docname="Piankusol_1.svg">
  <sodipodi:namedview
     id="base"
     pagecolor="#ffffff"
     bordercolor="#666666"
     borderopacity="1.0"
     inkscape:pageopacity="0.0"
     inkscape:pageshadow="2"
     inkscape:zoom="1.0893617"
     inkscape:cx="235"
     inkscape:cy="65"
     inkscape:document-units="px"
     inkscape:current-layer="layer1"
     showgrid="false"
     inkscape:window-width="1366"
     inkscape:window-height="655"
     inkscape:window-x="0"
     inkscape:window-y="27"
     inkscape:window-maximized="1" />
  <defs
     id="defs1597">
    <clipPath
       clipPathUnits="userSpaceOnUse"
       id="clipPath230">
      <path
         d="m 57.108,261.39 c 2.1,-1.424 18.195,-11.873 17.521,-9.936 v 0 c -2.552,7.34 -2.558,32.024 7.363,47.467 v 0 c 0,0 -7.879,-17.915 -5.947,-33.896 v 0 c 0,0 12.207,4.358 13.057,15.322 v 0 c 0.793,10.231 -4.641,22.9 1.717,31.512 v 0 c 0,0 -39.68,-18.284 -19.03,-46.711 v 0 c 0,0 -0.54,-5.237 0.168,-9.776 v 0 c -3.287,1.513 -33.263,15.995 -44.692,45.863 v 0 c 0,0 13.861,-23.939 33.641,-35.109 v 0 c 0,0 6.338,18.871 -6.452,27.657 v 0 c -12.792,8.786 -29.889,13.878 -34.361,28.308 v 0 c 0,0 -12.567,-60.395 37.015,-60.701"
         id="path228"
         inkscape:connector-curvature="0" />
    </clipPath>
    <linearGradient
       x1="0"
       y1="0"
       x2="1"
       y2="0"
       gradientUnits="userSpaceOnUse"
       gradientTransform="matrix(71.666794,16.33301,16.33301,-71.666794,22.464355,280.99316)"
       spreadMethod="pad"
       id="linearGradient242">
      <stop
         style="stop-opacity:1;stop-color:#599246"
         offset="0"
         id="stop236" />
      <stop
         style="stop-opacity:1;stop-color:#99cb57"
         offset="0.9401854"
         id="stop238" />
      <stop
         style="stop-opacity:1;stop-color:#99cb57"
         offset="1"
         id="stop240" />
    </linearGradient>
  </defs>
  <metadata
     id="metadata1600">
    <rdf:RDF>
      <cc:Work
         rdf:about="">
        <dc:format>image/svg+xml</dc:format>
        <dc:type
           rdf:resource="http://purl.org/dc/dcmitype/StillImage" />
        <dc:title></dc:title>
      </cc:Work>
    </rdf:RDF>
  </metadata>
  <g
     id="layer1"
     inkscape:groupmode="layer"
     inkscape:label="Layer 1">
    <g
       transform="matrix(1.3333333,0,0,-1.3333333,-15.026467,446.58772)"
       id="g224">
      <g
         id="g226"
         clip-path="url(#clipPath230)">
        <g
           id="g232">
          <g
             id="g234">
            <path
               d="m 57.108,261.39 c 2.1,-1.424 18.195,-11.873 17.521,-9.936 v 0 c -2.552,7.34 -2.558,32.024 7.363,47.467 v 0 c 0,0 -7.879,-17.915 -5.947,-33.896 v 0 c 0,0 12.207,4.358 13.057,15.322 v 0 c 0.793,10.231 -4.641,22.9 1.717,31.512 v 0 c 0,0 -39.68,-18.284 -19.03,-46.711 v 0 c 0,0 -0.54,-5.237 0.168,-9.776 v 0 c -3.287,1.513 -33.263,15.995 -44.692,45.863 v 0 c 0,0 13.861,-23.939 33.641,-35.109 v 0 c 0,0 6.338,18.871 -6.452,27.657 v 0 c -12.792,8.786 -29.889,13.878 -34.361,28.308 v 0 c 0,0 -12.567,-60.395 37.015,-60.701"
               style="fill:url(#linearGradient242);stroke:none"
               id="path244"
               inkscape:connector-curvature="0" />
          </g>
        </g>
      </g>
    </g>
    <path
       d="m 130.8962,98.230395 h -8.64533 V 40.969063 h 8.64533 z"
       style="fill:#231f20;fill-opacity:1;fill-rule:nonzero;stroke:#231f20;stroke-width:1.33333325;stroke-linecap:butt;stroke-linejoin:miter;stroke-miterlimit:10;stroke-dasharray:none;stroke-opacity:1"
       id="path254"
       inkscape:connector-curvature="0" />
    <g
       id="g256"
       transform="matrix(1.3333333,0,0,-1.3333333,194.72153,40.9692)">
      <path
         d="m 0,0 v -32.5 c -0.214,-2.055 -0.787,-3.896 -1.721,-5.522 -0.4,-0.695 -0.901,-1.369 -1.501,-2.023 -0.6,-0.653 -1.32,-1.24 -2.161,-1.76 -0.841,-0.521 -1.821,-0.941 -2.942,-1.261 -1.12,-0.32 -2.402,-0.48 -3.842,-0.48 -1.068,0 -2.061,0.14 -2.982,0.42 -0.921,0.28 -1.722,0.7 -2.402,1.261 -0.68,0.56 -1.22,1.254 -1.62,2.081 -0.4,0.827 -0.614,1.787 -0.641,2.882 -0.026,-1.095 -0.24,-2.055 -0.64,-2.882 -0.401,-0.827 -0.948,-1.521 -1.641,-2.081 -0.695,-0.561 -1.501,-0.981 -2.422,-1.261 -0.92,-0.28 -1.914,-0.42 -2.981,-0.42 -1.441,0 -2.722,0.16 -3.842,0.48 -1.121,0.32 -2.102,0.74 -2.943,1.261 -0.84,0.52 -1.554,1.107 -2.14,1.76 -0.588,0.654 -1.08,1.328 -1.481,2.023 -0.935,1.626 -1.521,3.467 -1.762,5.522 V 0 h 6.405 v -30.019 c 0,-1.894 0.225,-3.348 0.68,-4.362 0.453,-1.014 0.986,-1.755 1.601,-2.221 0.613,-0.467 1.227,-0.741 1.84,-0.821 0.614,-0.08 1.068,-0.12 1.362,-0.12 h 0.28 c 1.12,0 2.001,0.294 2.642,0.881 0.64,0.586 1.127,1.267 1.46,2.041 0.333,0.773 0.541,1.548 0.621,2.321 0.079,0.775 0.12,1.362 0.12,1.762 V -30.019 0 h 5.683 v -30.019 -0.519 c 0,-0.4 0.053,-0.987 0.16,-1.762 0.107,-0.773 0.327,-1.548 0.661,-2.321 0.333,-0.774 0.827,-1.455 1.48,-2.041 0.654,-0.587 1.541,-0.881 2.662,-0.881 h 0.32 c 0.293,0 0.733,0.04 1.321,0.12 0.587,0.08 1.174,0.354 1.761,0.821 0.586,0.466 1.101,1.207 1.541,2.221 0.44,1.014 0.661,2.468 0.661,4.362 V 0 Z"
         style="fill:#231f20;fill-opacity:1;fill-rule:nonzero;stroke:none"
         id="path258"
         inkscape:connector-curvature="0" />
    </g>
    <g
       id="g260"
       transform="matrix(1.3333333,0,0,-1.3333333,194.72153,40.9692)">
      <path
         d="m 0,0 v -32.5 c -0.214,-2.055 -0.787,-3.896 -1.721,-5.522 -0.4,-0.695 -0.901,-1.369 -1.501,-2.023 -0.6,-0.653 -1.32,-1.24 -2.161,-1.76 -0.841,-0.521 -1.821,-0.941 -2.942,-1.261 -1.12,-0.32 -2.402,-0.48 -3.842,-0.48 -1.068,0 -2.061,0.14 -2.982,0.42 -0.921,0.28 -1.722,0.7 -2.402,1.261 -0.68,0.56 -1.22,1.254 -1.62,2.081 -0.4,0.827 -0.614,1.787 -0.641,2.882 -0.026,-1.095 -0.24,-2.055 -0.64,-2.882 -0.401,-0.827 -0.948,-1.521 -1.641,-2.081 -0.695,-0.561 -1.501,-0.981 -2.422,-1.261 -0.92,-0.28 -1.914,-0.42 -2.981,-0.42 -1.441,0 -2.722,0.16 -3.842,0.48 -1.121,0.32 -2.102,0.74 -2.943,1.261 -0.84,0.52 -1.554,1.107 -2.14,1.76 -0.588,0.654 -1.08,1.328 -1.481,2.023 -0.935,1.626 -1.521,3.467 -1.762,5.522 V 0 h 6.405 v -30.019 c 0,-1.894 0.225,-3.348 0.68,-4.362 0.453,-1.014 0.986,-1.755 1.601,-2.221 0.613,-0.467 1.227,-0.741 1.84,-0.821 0.614,-0.08 1.068,-0.12 1.362,-0.12 h 0.28 c 1.12,0 2.001,0.294 2.642,0.881 0.64,0.586 1.127,1.267 1.46,2.041 0.333,0.773 0.541,1.548 0.621,2.321 0.079,0.775 0.12,1.362 0.12,1.762 V -30.019 0 h 5.683 v -30.019 -0.519 c 0,-0.4 0.053,-0.987 0.16,-1.762 0.107,-0.773 0.327,-1.548 0.661,-2.321 0.333,-0.774 0.827,-1.455 1.48,-2.041 0.654,-0.587 1.541,-0.881 2.662,-0.881 h 0.32 c 0.293,0 0.733,0.04 1.321,0.12 0.587,0.08 1.174,0.354 1.761,0.821 0.586,0.466 1.101,1.207 1.541,2.221 0.44,1.014 0.661,2.468 0.661,4.362 V 0 Z"
         style="fill:none;stroke:#231f20;stroke-width:1;stroke-linecap:butt;stroke-linejoin:miter;stroke-miterlimit:10;stroke-dasharray:none;stroke-opacity:1"
         id="path262"
         inkscape:connector-curvature="0" />
    </g>
    <g
       id="g264"
       transform="matrix(1.3333333,0,0,-1.3333333,187.2502,21.064259)">
      <path
         d="m 0,0 v -9.847 h -23.935 v 6.004 H -6.003 V 0 Z"
         style="fill:#231f20;fill-opacity:1;fill-rule:nonzero;stroke:none"
         id="path266"
         inkscape:connector-curvature="0" />
    </g>
    <g
       id="g268"
       transform="matrix(1.3333333,0,0,-1.3333333,187.2502,21.064259)">
      <path
         d="m 0,0 v -9.847 h -23.935 v 6.004 H -6.003 V 0 Z"
         style="fill:none;stroke:#231f20;stroke-width:1;stroke-linecap:butt;stroke-linejoin:miter;stroke-miterlimit:10;stroke-dasharray:none;stroke-opacity:1"
         id="path270"
         inkscape:connector-curvature="0" />
    </g>
    <g
       id="g272"
       transform="matrix(1.3333333,0,0,-1.3333333,248.0334,40.9692)">
      <path
         d="m 0,0 v -30.898 c 0,-1.815 -0.268,-3.376 -0.801,-4.684 -0.533,-1.307 -1.214,-2.408 -2.041,-3.302 -0.827,-0.894 -1.748,-1.607 -2.762,-2.141 -1.014,-0.534 -1.988,-0.941 -2.921,-1.22 -0.934,-0.28 -1.775,-0.468 -2.522,-0.561 -0.747,-0.093 -1.28,-0.14 -1.6,-0.14 h -8.005 c -2.108,0 -3.91,0.22 -5.403,0.661 -1.495,0.44 -2.749,1.014 -3.762,1.721 -1.015,0.707 -1.822,1.494 -2.422,2.361 -0.6,0.867 -1.054,1.727 -1.361,2.581 -0.307,0.854 -0.507,1.655 -0.601,2.402 -0.092,0.747 -0.139,1.347 -0.139,1.801 0,1.707 0.306,3.135 0.921,4.282 0.612,1.148 1.313,2.082 2.1,2.802 0.788,0.721 1.527,1.254 2.221,1.602 0.695,0.345 1.121,0.546 1.281,0.6 -0.853,0.16 -1.607,0.419 -2.261,0.779 -0.653,0.362 -1.221,0.788 -1.701,1.282 -0.48,0.493 -0.887,1.02 -1.221,1.581 -0.333,0.56 -0.62,1.121 -0.86,1.68 -0.534,1.308 -0.854,2.763 -0.961,4.363 0,1.548 0.147,2.916 0.441,4.102 0.293,1.188 0.686,2.222 1.18,3.103 0.493,0.88 1.054,1.621 1.681,2.221 0.626,0.6 1.274,1.101 1.941,1.501 1.548,0.907 3.308,1.414 5.283,1.521 h 8.566 v -6.004 h -5.123 c -0.961,0 -1.802,-0.094 -2.523,-0.28 -0.72,-0.187 -1.339,-0.434 -1.86,-0.74 -0.521,-0.307 -0.96,-0.655 -1.321,-1.04 -0.36,-0.388 -0.66,-0.781 -0.901,-1.181 -0.533,-0.935 -0.84,-2.002 -0.919,-3.203 0,-1.067 0.172,-1.968 0.519,-2.701 0.347,-0.734 0.788,-1.341 1.321,-1.821 0.534,-0.481 1.114,-0.854 1.742,-1.121 0.626,-0.266 1.219,-0.46 1.781,-0.58 0.559,-0.121 1.039,-0.194 1.44,-0.221 0.4,-0.026 0.641,-0.04 0.721,-0.04 h 5.123 v -6.004 h -5.123 c -1.122,0 -2.075,-0.126 -2.862,-0.379 -0.788,-0.254 -1.435,-0.567 -1.942,-0.941 -0.507,-0.374 -0.9,-0.787 -1.18,-1.241 -0.28,-0.454 -0.487,-0.895 -0.621,-1.32 -0.133,-0.428 -0.213,-0.794 -0.239,-1.101 -0.027,-0.308 -0.041,-0.515 -0.041,-0.62 0,-1.068 0.147,-1.969 0.441,-2.702 0.293,-0.735 0.666,-1.334 1.12,-1.801 0.454,-0.467 0.961,-0.835 1.521,-1.101 0.56,-0.267 1.094,-0.46 1.601,-0.581 0.507,-0.119 0.967,-0.186 1.381,-0.2 0.413,-0.013 0.7,-0.019 0.861,-0.019 h 0.16 7.724 c 1.522,0 2.707,0.306 3.563,0.921 0.853,0.613 1.508,1.306 1.961,2.081 0.506,0.879 0.841,1.894 1,3.042 V 0 Z"
         style="fill:#231f20;fill-opacity:1;fill-rule:nonzero;stroke:none"
         id="path274"
         inkscape:connector-curvature="0" />
    </g>
    <g
       id="g276"
       transform="matrix(1.3333333,0,0,-1.3333333,248.0334,40.9692)">
      <path
         d="m 0,0 v -30.898 c 0,-1.815 -0.268,-3.376 -0.801,-4.684 -0.533,-1.307 -1.214,-2.408 -2.041,-3.302 -0.827,-0.894 -1.748,-1.607 -2.762,-2.141 -1.014,-0.534 -1.988,-0.941 -2.921,-1.22 -0.934,-0.28 -1.775,-0.468 -2.522,-0.561 -0.747,-0.093 -1.28,-0.14 -1.6,-0.14 h -8.005 c -2.108,0 -3.91,0.22 -5.403,0.661 -1.495,0.44 -2.749,1.014 -3.762,1.721 -1.015,0.707 -1.822,1.494 -2.422,2.361 -0.6,0.867 -1.054,1.727 -1.361,2.581 -0.307,0.854 -0.507,1.655 -0.601,2.402 -0.092,0.747 -0.139,1.347 -0.139,1.801 0,1.707 0.306,3.135 0.921,4.282 0.612,1.148 1.313,2.082 2.1,2.802 0.788,0.721 1.527,1.254 2.221,1.602 0.695,0.345 1.121,0.546 1.281,0.6 -0.853,0.16 -1.607,0.419 -2.261,0.779 -0.653,0.362 -1.221,0.788 -1.701,1.282 -0.48,0.493 -0.887,1.02 -1.221,1.581 -0.333,0.56 -0.62,1.121 -0.86,1.68 -0.534,1.308 -0.854,2.763 -0.961,4.363 0,1.548 0.147,2.916 0.441,4.102 0.293,1.188 0.686,2.222 1.18,3.103 0.493,0.88 1.054,1.621 1.681,2.221 0.626,0.6 1.274,1.101 1.941,1.501 1.548,0.907 3.308,1.414 5.283,1.521 h 8.566 v -6.004 h -5.123 c -0.961,0 -1.802,-0.094 -2.523,-0.28 -0.72,-0.187 -1.339,-0.434 -1.86,-0.74 -0.521,-0.307 -0.96,-0.655 -1.321,-1.04 -0.36,-0.388 -0.66,-0.781 -0.901,-1.181 -0.533,-0.935 -0.84,-2.002 -0.919,-3.203 0,-1.067 0.172,-1.968 0.519,-2.701 0.347,-0.734 0.788,-1.341 1.321,-1.821 0.534,-0.481 1.114,-0.854 1.742,-1.121 0.626,-0.266 1.219,-0.46 1.781,-0.58 0.559,-0.121 1.039,-0.194 1.44,-0.221 0.4,-0.026 0.641,-0.04 0.721,-0.04 h 5.123 v -6.004 h -5.123 c -1.122,0 -2.075,-0.126 -2.862,-0.379 -0.788,-0.254 -1.435,-0.567 -1.942,-0.941 -0.507,-0.374 -0.9,-0.787 -1.18,-1.241 -0.28,-0.454 -0.487,-0.895 -0.621,-1.32 -0.133,-0.428 -0.213,-0.794 -0.239,-1.101 -0.027,-0.308 -0.041,-0.515 -0.041,-0.62 0,-1.068 0.147,-1.969 0.441,-2.702 0.293,-0.735 0.666,-1.334 1.12,-1.801 0.454,-0.467 0.961,-0.835 1.521,-1.101 0.56,-0.267 1.094,-0.46 1.601,-0.581 0.507,-0.119 0.967,-0.186 1.381,-0.2 0.413,-0.013 0.7,-0.019 0.861,-0.019 h 0.16 7.724 c 1.522,0 2.707,0.306 3.563,0.921 0.853,0.613 1.508,1.306 1.961,2.081 0.506,0.879 0.841,1.894 1,3.042 V 0 Z"
         style="fill:none;stroke:#231f20;stroke-width:1;stroke-linecap:butt;stroke-linejoin:miter;stroke-miterlimit:10;stroke-dasharray:none;stroke-opacity:1"
         id="path278"
         inkscape:connector-curvature="0" />
    </g>
    <g
       id="g280"
       transform="matrix(1.3333333,0,0,-1.3333333,291.95273,55.6984)">
      <path
         d="m 0,0 -2.721,1.761 c -0.668,0.427 -1.415,0.834 -2.242,1.221 -0.827,0.386 -1.66,0.726 -2.502,1.02 -0.84,0.294 -1.634,0.521 -2.381,0.681 -0.747,0.16 -1.361,0.24 -1.841,0.24 -1.014,0 -1.975,-0.087 -2.881,-0.26 -0.907,-0.174 -1.707,-0.494 -2.403,-0.961 -0.693,-0.467 -1.247,-1.107 -1.66,-1.921 -0.414,-0.814 -0.621,-1.875 -0.621,-3.182 0,-1.307 0.354,-2.328 1.062,-3.062 0.706,-0.734 1.627,-1.307 2.762,-1.721 1.133,-0.414 2.407,-0.726 3.821,-0.94 1.414,-0.214 2.828,-0.44 4.243,-0.681 1.414,-0.24 2.775,-0.714 4.083,-1.421 1.306,-0.707 2.461,-1.581 3.461,-2.622 1.002,-1.04 1.801,-2.227 2.402,-3.561 0.601,-1.335 0.9,-2.748 0.9,-4.242 0,-2.215 -0.4,-4.137 -1.201,-5.764 -0.8,-1.628 -1.887,-2.969 -3.261,-4.022 -1.374,-1.055 -2.989,-1.835 -4.842,-2.341 -1.856,-0.507 -3.824,-0.761 -5.905,-0.761 -2.935,0 -5.437,0.326 -7.504,0.98 -2.068,0.654 -3.783,1.381 -5.143,2.181 -1.575,0.907 -2.882,1.962 -3.923,3.162 l 4.243,4.162 c 0.507,-0.506 1.187,-1.027 2.04,-1.56 0.855,-0.533 1.823,-1.015 2.903,-1.441 1.081,-0.426 2.241,-0.774 3.482,-1.041 1.24,-0.267 2.515,-0.4 3.822,-0.4 1.334,0 2.541,0.167 3.622,0.501 1.081,0.333 2.001,0.807 2.763,1.42 0.76,0.614 1.34,1.334 1.74,2.162 0.401,0.826 0.6,1.747 0.6,2.762 0,1.04 -0.174,1.887 -0.52,2.541 -0.347,0.653 -0.753,1.167 -1.22,1.541 -0.467,0.374 -0.942,0.633 -1.421,0.781 -0.481,0.145 -0.855,0.246 -1.121,0.3 -0.107,0.025 -0.54,0.099 -1.3,0.219 -0.762,0.121 -1.621,0.261 -2.582,0.421 -0.961,0.16 -1.922,0.32 -2.883,0.48 -0.96,0.16 -1.68,0.294 -2.161,0.4 -0.319,0.054 -0.774,0.167 -1.36,0.341 -0.587,0.173 -1.235,0.426 -1.941,0.76 -0.708,0.334 -1.428,0.773 -2.162,1.321 -0.733,0.546 -1.399,1.24 -2.001,2.081 -0.6,0.841 -1.088,1.841 -1.461,3.001 -0.375,1.161 -0.56,2.516 -0.56,4.063 0,2.321 0.414,4.29 1.24,5.904 0.827,1.614 1.908,2.928 3.243,3.942 1.333,1.014 2.841,1.747 4.522,2.201 1.681,0.454 3.375,0.68 5.083,0.68 1.761,0 3.369,-0.2 4.823,-0.599 C -5.41,10.326 -4.149,9.898 -3.082,9.445 -1.828,8.911 -0.707,8.299 0.28,7.604 L 3.563,5.363 Z"
         style="fill:#231f20;fill-opacity:1;fill-rule:nonzero;stroke:none"
         id="path282"
         inkscape:connector-curvature="0" />
    </g>
    <g
       id="g284"
       transform="matrix(1.3333333,0,0,-1.3333333,291.95273,55.6984)">
      <path
         d="m 0,0 -2.721,1.761 c -0.668,0.427 -1.415,0.834 -2.242,1.221 -0.827,0.386 -1.66,0.726 -2.502,1.02 -0.84,0.294 -1.634,0.521 -2.381,0.681 -0.747,0.16 -1.361,0.24 -1.841,0.24 -1.014,0 -1.975,-0.087 -2.881,-0.26 -0.907,-0.174 -1.707,-0.494 -2.403,-0.961 -0.693,-0.467 -1.247,-1.107 -1.66,-1.921 -0.414,-0.814 -0.621,-1.875 -0.621,-3.182 0,-1.307 0.354,-2.328 1.062,-3.062 0.706,-0.734 1.627,-1.307 2.762,-1.721 1.133,-0.414 2.407,-0.726 3.821,-0.94 1.414,-0.214 2.828,-0.44 4.243,-0.681 1.414,-0.24 2.775,-0.714 4.083,-1.421 1.306,-0.707 2.461,-1.581 3.461,-2.622 1.002,-1.04 1.801,-2.227 2.402,-3.561 0.601,-1.335 0.9,-2.748 0.9,-4.242 0,-2.215 -0.4,-4.137 -1.201,-5.764 -0.8,-1.628 -1.887,-2.969 -3.261,-4.022 -1.374,-1.055 -2.989,-1.835 -4.842,-2.341 -1.856,-0.507 -3.824,-0.761 -5.905,-0.761 -2.935,0 -5.437,0.326 -7.504,0.98 -2.068,0.654 -3.783,1.381 -5.143,2.181 -1.575,0.907 -2.882,1.962 -3.923,3.162 l 4.243,4.162 c 0.507,-0.506 1.187,-1.027 2.04,-1.56 0.855,-0.533 1.823,-1.015 2.903,-1.441 1.081,-0.426 2.241,-0.774 3.482,-1.041 1.24,-0.267 2.515,-0.4 3.822,-0.4 1.334,0 2.541,0.167 3.622,0.501 1.081,0.333 2.001,0.807 2.763,1.42 0.76,0.614 1.34,1.334 1.74,2.162 0.401,0.826 0.6,1.747 0.6,2.762 0,1.04 -0.174,1.887 -0.52,2.541 -0.347,0.653 -0.753,1.167 -1.22,1.541 -0.467,0.374 -0.942,0.633 -1.421,0.781 -0.481,0.145 -0.855,0.246 -1.121,0.3 -0.107,0.025 -0.54,0.099 -1.3,0.219 -0.762,0.121 -1.621,0.261 -2.582,0.421 -0.961,0.16 -1.922,0.32 -2.883,0.48 -0.96,0.16 -1.68,0.294 -2.161,0.4 -0.319,0.054 -0.774,0.167 -1.36,0.341 -0.587,0.173 -1.235,0.426 -1.941,0.76 -0.708,0.334 -1.428,0.773 -2.162,1.321 -0.733,0.546 -1.399,1.24 -2.001,2.081 -0.6,0.841 -1.088,1.841 -1.461,3.001 -0.375,1.161 -0.56,2.516 -0.56,4.063 0,2.321 0.414,4.29 1.24,5.904 0.827,1.614 1.908,2.928 3.243,3.942 1.333,1.014 2.841,1.747 4.522,2.201 1.681,0.454 3.375,0.68 5.083,0.68 1.761,0 3.369,-0.2 4.823,-0.599 C -5.41,10.326 -4.149,9.898 -3.082,9.445 -1.828,8.911 -0.707,8.299 0.28,7.604 L 3.563,5.363 Z"
         style="fill:none;stroke:#231f20;stroke-width:1;stroke-linecap:butt;stroke-linejoin:miter;stroke-miterlimit:10;stroke-dasharray:none;stroke-opacity:1"
         id="path286"
         inkscape:connector-curvature="0" />
    </g>
    <g
       id="g288"
       transform="matrix(1.3333333,0,0,-1.3333333,305.0282,98.23093)">
      <path
         d="m 0,0 v 32.9 c 0.88,1.627 1.84,3.015 2.881,4.163 1.041,1.147 2.115,2.1 3.222,2.861 1.107,0.761 2.202,1.361 3.282,1.802 1.08,0.44 2.082,0.773 3.002,1 0.92,0.226 1.727,0.367 2.421,0.42 0.694,0.053 1.214,0.08 1.561,0.08 h 0.401 c 2.081,-0.053 3.908,-0.32 5.482,-0.8 1.575,-0.481 2.955,-1.087 4.144,-1.822 1.186,-0.734 2.187,-1.567 3,-2.5 0.815,-0.935 1.488,-1.896 2.022,-2.882 0.533,-0.988 0.947,-1.961 1.24,-2.922 0.295,-0.961 0.514,-1.835 0.661,-2.621 0.146,-0.788 0.234,-1.455 0.261,-2.002 0.026,-0.547 0.039,-0.901 0.039,-1.061 V 0 h -6.404 v 26.616 c 0,1.707 -0.234,3.142 -0.699,4.303 -0.467,1.16 -1.061,2.121 -1.782,2.882 -0.72,0.76 -1.514,1.341 -2.381,1.74 -0.868,0.4 -1.688,0.701 -2.462,0.901 -0.774,0.201 -1.448,0.314 -2.021,0.34 -0.575,0.027 -0.94,0.04 -1.1,0.04 -1.309,0 -2.456,-0.146 -3.444,-0.439 C 12.34,36.089 11.479,35.701 10.746,35.222 10.012,34.741 9.398,34.194 8.904,33.58 8.41,32.967 8.004,32.34 7.684,31.699 6.936,30.204 6.51,28.51 6.402,26.616 V 0 Z"
         style="fill:#231f20;fill-opacity:1;fill-rule:nonzero;stroke:none"
         id="path290"
         inkscape:connector-curvature="0" />
    </g>
    <g
       id="g292"
       transform="matrix(1.3333333,0,0,-1.3333333,305.0282,98.23093)">
      <path
         d="m 0,0 v 32.9 c 0.88,1.627 1.84,3.015 2.881,4.163 1.041,1.147 2.115,2.1 3.222,2.861 1.107,0.761 2.202,1.361 3.282,1.802 1.08,0.44 2.082,0.773 3.002,1 0.92,0.226 1.727,0.367 2.421,0.42 0.694,0.053 1.214,0.08 1.561,0.08 h 0.401 c 2.081,-0.053 3.908,-0.32 5.482,-0.8 1.575,-0.481 2.955,-1.087 4.144,-1.822 1.186,-0.734 2.187,-1.567 3,-2.5 0.815,-0.935 1.488,-1.896 2.022,-2.882 0.533,-0.988 0.947,-1.961 1.24,-2.922 0.295,-0.961 0.514,-1.835 0.661,-2.621 0.146,-0.788 0.234,-1.455 0.261,-2.002 0.026,-0.547 0.039,-0.901 0.039,-1.061 V 0 h -6.404 v 26.616 c 0,1.707 -0.234,3.142 -0.699,4.303 -0.467,1.16 -1.061,2.121 -1.782,2.882 -0.72,0.76 -1.514,1.341 -2.381,1.74 -0.868,0.4 -1.688,0.701 -2.462,0.901 -0.774,0.201 -1.448,0.314 -2.021,0.34 -0.575,0.027 -0.94,0.04 -1.1,0.04 -1.309,0 -2.456,-0.146 -3.444,-0.439 C 12.34,36.089 11.479,35.701 10.746,35.222 10.012,34.741 9.398,34.194 8.904,33.58 8.41,32.967 8.004,32.34 7.684,31.699 6.936,30.204 6.51,28.51 6.402,26.616 V 0 Z"
         style="fill:none;stroke:#231f20;stroke-width:1;stroke-linecap:butt;stroke-linejoin:miter;stroke-miterlimit:10;stroke-dasharray:none;stroke-opacity:1"
         id="path294"
         inkscape:connector-curvature="0" />
    </g>
    <g
       id="g296"
       transform="matrix(1.3333333,0,0,-1.3333333,339.5542,111.7856)">
      <path
         d="m 0,0 h -3.041 v 6.004 h 5.924 c 0.853,0 1.588,-0.307 2.2,-0.92 C 5.697,4.496 6.004,3.776 6.004,2.922 V -9.686 H 0 Z"
         style="fill:#231f20;fill-opacity:1;fill-rule:nonzero;stroke:none"
         id="path298"
         inkscape:connector-curvature="0" />
    </g>
    <g
       id="g300"
       transform="matrix(1.3333333,0,0,-1.3333333,339.5542,111.7856)">
      <path
         d="m 0,0 h -3.041 v 6.004 h 5.924 c 0.853,0 1.588,-0.307 2.2,-0.92 C 5.697,4.496 6.004,3.776 6.004,2.922 V -9.686 H 0 Z"
         style="fill:none;stroke:#231f20;stroke-width:1;stroke-linecap:butt;stroke-linejoin:miter;stroke-miterlimit:10;stroke-dasharray:none;stroke-opacity:1"
         id="path302"
         inkscape:connector-curvature="0" />
    </g>
    <g
       id="g304"
       transform="matrix(1.3333333,0,0,-1.3333333,408.2886,40.1684)">
      <path
         d="m 0,0 c 0,-0.215 -0.239,-0.601 -0.719,-1.161 -0.48,-0.56 -1.049,-1.154 -1.702,-1.781 -0.653,-0.627 -1.315,-1.207 -1.981,-1.742 -0.668,-0.534 -1.188,-0.867 -1.561,-1 0.881,-1.068 1.573,-2.188 2.082,-3.362 0.506,-1.175 0.88,-2.281 1.119,-3.321 0.241,-1.041 0.395,-1.976 0.461,-2.803 0.067,-0.827 0.101,-1.428 0.101,-1.801 v -0.399 -26.177 h -6.405 v 26.177 c 0,1.333 -0.147,2.507 -0.44,3.521 -0.293,1.014 -0.687,1.894 -1.18,2.642 -0.494,0.746 -1.054,1.381 -1.681,1.901 -0.627,0.52 -1.26,0.941 -1.902,1.26 -1.521,0.775 -3.254,1.215 -5.202,1.321 -1.256,0 -2.356,-0.153 -3.302,-0.46 -0.948,-0.307 -1.782,-0.714 -2.502,-1.22 -0.721,-0.507 -1.334,-1.075 -1.84,-1.701 -0.509,-0.627 -0.936,-1.275 -1.282,-1.942 -0.8,-1.574 -1.294,-3.348 -1.48,-5.322 v -4.323 c 1.226,0.693 2.527,1.226 3.901,1.601 1.374,0.373 2.823,0.56 4.343,0.56 1.361,0 2.654,-0.148 3.883,-0.441 v -6.643 c -0.533,0.266 -1.128,0.42 -1.781,0.46 -0.655,0.04 -1.355,0.06 -2.102,0.06 -1.975,0 -3.695,-0.48 -5.164,-1.441 -0.746,-0.481 -1.366,-1.074 -1.86,-1.78 -0.494,-0.708 -0.902,-1.502 -1.22,-2.382 v -11.848 h -6.404 v 26.616 c 0,2.642 0.345,4.89 1.039,6.744 0.694,1.855 1.581,3.396 2.663,4.624 1.081,1.226 2.267,2.194 3.561,2.901 1.294,0.706 2.548,1.234 3.763,1.581 1.214,0.347 2.308,0.56 3.282,0.641 0.973,0.08 1.674,0.119 2.102,0.119 h 0.4 c 1.199,0 2.301,-0.067 3.301,-0.2 1.001,-0.133 1.942,-0.333 2.822,-0.6 0.053,0 0.407,0.059 1.061,0.181 0.653,0.119 1.414,0.379 2.281,0.78 0.866,0.399 1.761,0.967 2.682,1.701 0.92,0.733 1.674,1.714 2.261,2.94 C -3.828,3.735 -3.121,3.041 -2.48,2.4 -2.215,2.134 -1.947,1.866 -1.682,1.601 -1.414,1.333 -1.166,1.087 -0.939,0.86 -0.713,0.633 -0.514,0.446 -0.34,0.3 -0.166,0.153 -0.053,0.053 0,0"
         style="fill:#231f20;fill-opacity:1;fill-rule:nonzero;stroke:none"
         id="path306"
         inkscape:connector-curvature="0" />
    </g>
    <g
       id="g308"
       transform="matrix(1.3333333,0,0,-1.3333333,408.2886,40.1684)">
      <path
         d="m 0,0 c 0,-0.215 -0.239,-0.601 -0.719,-1.161 -0.48,-0.56 -1.049,-1.154 -1.702,-1.781 -0.653,-0.627 -1.315,-1.207 -1.981,-1.742 -0.668,-0.534 -1.188,-0.867 -1.561,-1 0.881,-1.068 1.573,-2.188 2.082,-3.362 0.506,-1.175 0.88,-2.281 1.119,-3.321 0.241,-1.041 0.395,-1.976 0.461,-2.803 0.067,-0.827 0.101,-1.428 0.101,-1.801 v -0.399 -26.177 h -6.405 v 26.177 c 0,1.333 -0.147,2.507 -0.44,3.521 -0.293,1.014 -0.687,1.894 -1.18,2.642 -0.494,0.746 -1.054,1.381 -1.681,1.901 -0.627,0.52 -1.26,0.941 -1.902,1.26 -1.521,0.775 -3.254,1.215 -5.202,1.321 -1.256,0 -2.356,-0.153 -3.302,-0.46 -0.948,-0.307 -1.782,-0.714 -2.502,-1.22 -0.721,-0.507 -1.334,-1.075 -1.84,-1.701 -0.509,-0.627 -0.936,-1.275 -1.282,-1.942 -0.8,-1.574 -1.294,-3.348 -1.48,-5.322 v -4.323 c 1.226,0.693 2.527,1.226 3.901,1.601 1.374,0.373 2.823,0.56 4.343,0.56 1.361,0 2.654,-0.148 3.883,-0.441 v -6.643 c -0.533,0.266 -1.128,0.42 -1.781,0.46 -0.655,0.04 -1.355,0.06 -2.102,0.06 -1.975,0 -3.695,-0.48 -5.164,-1.441 -0.746,-0.481 -1.366,-1.074 -1.86,-1.78 -0.494,-0.708 -0.902,-1.502 -1.22,-2.382 v -11.848 h -6.404 v 26.616 c 0,2.642 0.345,4.89 1.039,6.744 0.694,1.855 1.581,3.396 2.663,4.624 1.081,1.226 2.267,2.194 3.561,2.901 1.294,0.706 2.548,1.234 3.763,1.581 1.214,0.347 2.308,0.56 3.282,0.641 0.973,0.08 1.674,0.119 2.102,0.119 h 0.4 c 1.199,0 2.301,-0.067 3.301,-0.2 1.001,-0.133 1.942,-0.333 2.822,-0.6 0.053,0 0.407,0.059 1.061,0.181 0.653,0.119 1.414,0.379 2.281,0.78 0.866,0.399 1.761,0.967 2.682,1.701 0.92,0.733 1.674,1.714 2.261,2.94 C -3.828,3.735 -3.121,3.041 -2.48,2.4 -2.215,2.134 -1.947,1.866 -1.682,1.601 -1.414,1.333 -1.166,1.087 -0.939,0.86 -0.713,0.633 -0.514,0.446 -0.34,0.3 -0.166,0.153 -0.053,0.053 0,0 Z"
         style="fill:none;stroke:#231f20;stroke-width:1;stroke-linecap:butt;stroke-linejoin:miter;stroke-miterlimit:10;stroke-dasharray:none;stroke-opacity:1"
         id="path310"
         inkscape:connector-curvature="0" />
    </g>
    <g
       id="g312"
       transform="matrix(1.3333333,0,0,-1.3333333,446.15326,42.0096)">
      <path
         d="m 0,0 c 1.881,-0.708 3.441,-1.608 4.683,-2.702 1.24,-1.094 2.213,-2.295 2.921,-3.602 0.707,-1.308 1.24,-2.582 1.601,-3.823 0.359,-1.24 0.58,-2.354 0.66,-3.341 0.079,-0.988 0.119,-1.695 0.119,-2.122 v -0.399 -26.177 H 3.582 v 12.648 c 0,1.227 -0.281,2.261 -0.842,3.102 -0.559,0.84 -1.26,1.534 -2.101,2.081 -0.84,0.547 -1.748,0.974 -2.721,1.28 -0.975,0.307 -1.881,0.534 -2.723,0.681 -0.84,0.146 -1.82,0.247 -2.941,0.3 -0.079,0 -0.34,-0.013 -0.779,-0.04 -0.442,-0.027 -0.989,-0.114 -1.643,-0.26 -0.653,-0.147 -1.353,-0.359 -2.1,-0.641 -0.748,-0.279 -1.461,-0.687 -2.142,-1.22 -0.68,-0.534 -1.295,-1.207 -1.84,-2.021 -0.548,-0.814 -0.928,-1.808 -1.143,-2.982 -0.079,-0.373 -0.118,-0.72 -0.118,-1.04 0,-0.909 0.226,-1.682 0.681,-2.322 0.453,-0.64 1.025,-1.174 1.72,-1.601 0.694,-0.427 1.474,-0.774 2.342,-1.04 0.866,-0.267 1.72,-0.467 2.561,-0.601 0.84,-0.134 1.607,-0.22 2.302,-0.26 0.692,-0.041 1.24,-0.06 1.64,-0.06 h 0.56 v -6.004 h -7.203 c -1.496,0 -2.903,0.321 -4.223,0.961 -1.321,0.641 -2.474,1.514 -3.462,2.622 -0.988,1.106 -1.762,2.388 -2.321,3.842 -0.561,1.454 -0.84,2.981 -0.84,4.583 0,1.574 0.354,3.175 1.06,4.803 0.707,1.626 1.887,3.202 3.542,4.722 0.986,0.907 2.002,1.675 3.041,2.302 1.041,0.626 2.082,1.12 3.123,1.48 1.039,0.361 2.066,0.621 3.082,0.781 1.013,0.16 2.001,0.24 2.961,0.24 1.466,0 2.847,-0.14 4.142,-0.42 1.295,-0.28 2.408,-0.58 3.342,-0.9 1.094,-0.401 2.107,-0.841 3.043,-1.321 v 2.482 c 0,1.333 -0.147,2.507 -0.441,3.521 -0.294,1.014 -0.687,1.894 -1.18,2.642 -0.494,0.746 -1.055,1.381 -1.682,1.901 -0.627,0.52 -1.259,0.941 -1.901,1.26 -1.522,0.774 -3.256,1.215 -5.202,1.321 -1.737,0 -3.203,-0.306 -4.405,-0.921 -1.2,-0.613 -2.187,-1.367 -2.96,-2.26 -0.774,-0.895 -1.369,-1.829 -1.782,-2.802 -0.414,-0.975 -0.715,-1.821 -0.9,-2.541 h -6.724 c 0.159,2.374 0.62,4.388 1.38,6.043 0.761,1.654 1.682,3.035 2.762,4.142 1.081,1.108 2.248,1.982 3.503,2.621 1.254,0.641 2.462,1.115 3.622,1.421 1.16,0.307 2.201,0.5 3.122,0.581 0.919,0.081 1.581,0.12 1.981,0.12 h 0.401 C -4.156,1.06 -1.882,0.707 0,0"
         style="fill:#231f20;fill-opacity:1;fill-rule:nonzero;stroke:none"
         id="path314"
         inkscape:connector-curvature="0" />
    </g>
    <g
       id="g316"
       transform="matrix(1.3333333,0,0,-1.3333333,446.15326,42.0096)">
      <path
         d="m 0,0 c 1.881,-0.708 3.441,-1.608 4.683,-2.702 1.24,-1.094 2.213,-2.295 2.921,-3.602 0.707,-1.308 1.24,-2.582 1.601,-3.823 0.359,-1.24 0.58,-2.354 0.66,-3.341 0.079,-0.988 0.119,-1.695 0.119,-2.122 v -0.399 -26.177 H 3.582 v 12.648 c 0,1.227 -0.281,2.261 -0.842,3.102 -0.559,0.84 -1.26,1.534 -2.101,2.081 -0.84,0.547 -1.748,0.974 -2.721,1.28 -0.975,0.307 -1.881,0.534 -2.723,0.681 -0.84,0.146 -1.82,0.247 -2.941,0.3 -0.079,0 -0.34,-0.013 -0.779,-0.04 -0.442,-0.027 -0.989,-0.114 -1.643,-0.26 -0.653,-0.147 -1.353,-0.359 -2.1,-0.641 -0.748,-0.279 -1.461,-0.687 -2.142,-1.22 -0.68,-0.534 -1.295,-1.207 -1.84,-2.021 -0.548,-0.814 -0.928,-1.808 -1.143,-2.982 -0.079,-0.373 -0.118,-0.72 -0.118,-1.04 0,-0.909 0.226,-1.682 0.681,-2.322 0.453,-0.64 1.025,-1.174 1.72,-1.601 0.694,-0.427 1.474,-0.774 2.342,-1.04 0.866,-0.267 1.72,-0.467 2.561,-0.601 0.84,-0.134 1.607,-0.22 2.302,-0.26 0.692,-0.041 1.24,-0.06 1.64,-0.06 h 0.56 v -6.004 h -7.203 c -1.496,0 -2.903,0.321 -4.223,0.961 -1.321,0.641 -2.474,1.514 -3.462,2.622 -0.988,1.106 -1.762,2.388 -2.321,3.842 -0.561,1.454 -0.84,2.981 -0.84,4.583 0,1.574 0.354,3.175 1.06,4.803 0.707,1.626 1.887,3.202 3.542,4.722 0.986,0.907 2.002,1.675 3.041,2.302 1.041,0.626 2.082,1.12 3.123,1.48 1.039,0.361 2.066,0.621 3.082,0.781 1.013,0.16 2.001,0.24 2.961,0.24 1.466,0 2.847,-0.14 4.142,-0.42 1.295,-0.28 2.408,-0.58 3.342,-0.9 1.094,-0.401 2.107,-0.841 3.043,-1.321 v 2.482 c 0,1.333 -0.147,2.507 -0.441,3.521 -0.294,1.014 -0.687,1.894 -1.18,2.642 -0.494,0.746 -1.055,1.381 -1.682,1.901 -0.627,0.52 -1.259,0.941 -1.901,1.26 -1.522,0.774 -3.256,1.215 -5.202,1.321 -1.737,0 -3.203,-0.306 -4.405,-0.921 -1.2,-0.613 -2.187,-1.367 -2.96,-2.26 -0.774,-0.895 -1.369,-1.829 -1.782,-2.802 -0.414,-0.975 -0.715,-1.821 -0.9,-2.541 h -6.724 c 0.159,2.374 0.62,4.388 1.38,6.043 0.761,1.654 1.682,3.035 2.762,4.142 1.081,1.108 2.248,1.982 3.503,2.621 1.254,0.641 2.462,1.115 3.622,1.421 1.16,0.307 2.201,0.5 3.122,0.581 0.919,0.081 1.581,0.12 1.981,0.12 h 0.401 C -4.156,1.06 -1.882,0.707 0,0 Z"
         style="fill:none;stroke:#231f20;stroke-width:1;stroke-linecap:butt;stroke-linejoin:miter;stroke-miterlimit:10;stroke-dasharray:none;stroke-opacity:1"
         id="path318"
         inkscape:connector-curvature="0" />
    </g>
  </g>
</svg>
